<svg xmlns="http://www.w3.org/2000/svg" viewBox="0 0 500 600" height="400px">
  <defs>
    
    <circle id="pivot" r="5" cx="5" cy="5" stroke="black" fill="lightslategrey" />
    
    <g id="alpha" transform="scale(0.01)">
        <path fill="blue" d="M 788,916 L 958,916 L 855,453 C 835,365 821.33333,311 814,291 C 840.66667,168.33333 879.33333,107 930,107 C 990,107 1021,148.33333 1023,231 L 1059,231 C 1057,153.66667 1042.8333,91.166667 1016.5,43.5 C 990.16667,-4.1666667 955.66667,-28 913,-28 C 877.66667,-28 851.33333,-13.666667 834,15 C 816.66667,43.666667 798,102.33333 778,191 C 708.66667,45 595.33333,-28 438,-28 C 330.66667,-28 245.33333,13.833333 182,97.5 C 118.66667,181.16667 87,301 87,457 C 87,610.33333 121.66667,729.66667 191,815 C 260.33333,900.33333 343.66667,943 441,943 C 509.66667,943 566,918.66667 610,870 C 654,821.33333 693,742 727,632 L 788,916 z M 700,524 C 668.66667,631.33333 633.66667,715.16667 595,775.5 C 556.33333,835.83333 510,866 456,866 C 334,866 273,723.33333 273,438 C 273,167.33333 331.33333,32 448,32 C 549.33333,32 624.33333,151.33333 673,390 L 700,524 z" />
    </g>
    
    <g id="mount">
      <rect height="30" width="30" stroke="black" fill="whitesmoke" />
      <use href="#pivot" x="10" y="10" />
    </g>
    
    <g id="everything" style="visibility:var(--vis-everything, hidden)">
        <!-- upper shock mount -->
        <use href="#mount" x="100" y="50" style="visibility:var(--vis-mount-top)" />
        
        <!-- shock -->
        <g transform="translate(125,60) rotate(80) scale(0.65) translate(50,0)">
            <rect height="10" width="300" y="10" />
            <rect height="30" width="200" />
            
            <g transform="translate(0, -10)">
                <g id="coil" transform="rotate(-30)">
                    <circle r="5" cx="0" cy="0" stroke="black" fill="black" />
                    <circle r="5" cx="0" cy="60" stroke="black" fill="black" />
                    <rect height="60" width="10" x="-5" />
                </g>
                <use href="#coil" x="40" />
                <use href="#coil" x="80" />
                <use href="#coil" x="120" />
                <use href="#coil" x="160" />
                <use href="#coil" x="200" />
                <use href="#coil" x="240" />
            </g>
        </g>

        <g id="swingarm" style="visibility:var(--vis-swingarm)" >
          <g transform="translate(50,300)" >
              <!-- swingarm pivot -->
              <use href="#mount" x="-5" y="-5" style="visibility:var(--vis-mount-front)" />
            
              <g transform="rotate(15,15,15)" >
                  <!-- wheel -->
                  <circle r="200" cx="490" cy="10" stroke="black" fill="none" />

                  <!-- arm and lower shock mount -->
                  <g style="visibility:var(--vis-mount-swingarm)">
                    <rect x="100" y="-30" width="20" height="50" stroke="black" fill="lightsteelblue" />
                    <use href="#pivot" x="105" y="-25" />
                  </g>  
                  <rect x="0" y="0" width="500" height="20" stroke="black" fill="lightsteelblue" />
                  <use href="#pivot" x="5" y="5" />
                  <use href="#pivot" x="485" y="5" />
                  <!-- length marking on swingarm -->
                  <g style="visibility:var(--vis-geo1, hidden)">
                    <line x1="10" y1="40" x2="10" y2="60" stroke="blue" />
                    <line x1="490" y1="40" x2="490" y2="60" stroke="blue" />
                    <line x1="10" y1="50" x2="490" y2="50" stroke="blue" />
                    <!-- forward ref -->
                    <use href="#dSwingarm" x="250" y="80" stroke="blue" />
                  </g>  
                
                  <!-- dimension markings on swingarm/shock geometry -->
                  <g style="visibility:var(--vis-geo2, hidden)">
                    <line x1="5" y1="25" x2="5" y2="50" stroke="blue" />
                    <line x1="105" y1="25" x2="105" y2="50" stroke="blue" />
                    <line x1="5" y1="40" x2="105" y2="40" stroke="blue" />
                    <g transform="translate(40, 60)">
                      <!-- forward ref; not defined until later -->
                      <use href="#dc" stroke="blue" />
                    </g>
                    <line x1="125" y1="10" x2="150" y2="10" stroke="blue" />
                    <line x1="125" y1="-20" x2="150" y2="-20" stroke="blue" />
                    <line x1="140" y1="10" x2="140" y2="-20" stroke="blue" />
                    <g transform="translate(165, 5) rotate(-90)" >
                      <!-- forward ref; not defined until later -->
                      <use href="#db" stroke="blue" />
                    </g>
                    <g transform="translate(5, -10) rotate(-15)">
                        <line x1="0" y1="0" x2="0" y2="-25" stroke="blue" />
                        <line x1="100" y1="0" x2="100" y2="-25" stroke="blue" />
                        <line x1="0" y1="-15" x2="100" y2="-15" stroke="blue" />
                        <g transform="translate(40, -20)" >
                          <text id="geoQuestionMark" stroke="blue">?</text>                          
                        </g>
                    </g>
                  </g> <!-- dimension markings -->
              </g> <!-- rotation -->
            
            <!-- swingarm arc markings -->
            <g style="visibility:var(--vis-swingarm-tri, hidden)">
              <line x1="10" y1="10" x2="475" y2="10" stroke="blue" />
              <line x1="475" y1="10" x2="475" y2="130" stroke="blue" />
              <rect x="445" y="10" height="30" width="30" stroke="blue" fill="white" />
              <line x1="485" y1="10" x2="505" y2="10" stroke="blue" />
              <line x1="485" y1="130" x2="505" y2="130" stroke="blue" />
              <line x1="495" y1="10" x2="495" y2="130" stroke="blue" />
              <text stroke="blue" transform="translate(520,90) rotate(-90)">
                d <tspan baseline-shift="sub">y</tspan> 
              </text>
            </g>
            
            </g> <!-- translation -->
        
        </g> <!-- swingarm -->
        
        <!-- dimension markings for shock -->
        <g style="visibility:var(--vis-geo3, hidden)">
            <line x1="114" y1="74" x2="65" y2="300" stroke="blue" />
            <use href="#dd" stroke="blue" transform="translate(80,200) rotate(-75)" />
            <line x1="70" y1="310" x2="150" y2="310" stroke="blue" />
            <text x="110" y="330" stroke="blue" >?</text>
            <line x1="118" y1="74" x2="160" y2="295" stroke="blue" />
            <text stroke="blue" transform="translate(150,180) rotate(75)" >
                d <tspan baseline-shift="sub">s</tspan> 
            </text>
            <use href="#alpha" x="80" y="280" />
        </g>
        
        <g id="bodywork" style="visibility:var(--vis-bodywork)" >
          <path d="M0 350 L70 350  L100 200  L250 50  L700 0" stroke="black" fill="none" />
        </g>
        
    </g>
    
  </defs>

  <!-- Diagram for description of the problem -->
  <use href="#everything" style="--vis-everything:visible; --vis-geo1:visible; --vis-geo2:visible; --vis-geo3:visible; --vis-swingarm-tri:visible" />
</svg>
